<?xml version="1.0" encoding="utf-8"?>
<!-- Generator: Adobe Illustrator 24.3.0, SVG Export Plug-In . SVG Version: 6.00 Build 0)  -->
<svg version="1.0" id="Layer_1" xmlns="http://www.w3.org/2000/svg" xmlns:xlink="http://www.w3.org/1999/xlink" x="0px" y="0px"
	 viewBox="0 0 1920 1080" enable-background="new 0 0 1920 1080" xml:space="preserve">
<g>
	<path fill="#191919" d="M128.86,789.49c0-52.15,0-103.92,0-156.09c416.44,0,832.74,0,1249.45,0c0,51.82,0,103.75,0,156.09
		C962.11,789.49,545.82,789.49,128.86,789.49z M1361.91,647.29c-406.78,0-812.9,0-1218.92,0c0,43.55,0,86.68,0,129.71
		c406.54,0,812.66,0,1218.92,0C1361.91,733.62,1361.91,690.64,1361.91,647.29z"/>
	<path fill="#191919" d="M527.62,515.41c10.48-0.6,20.12-1.15,29.7-1.7c2.02,7.42,3.34,14.89,6.08,21.8
		c7.73,19.48,24.03,28.67,43.1,33.52c19.46,4.95,38.8,4.21,57.88-2.85c18.31-6.78,30.64-24.44,27.93-43.07
		c-1.59-10.93-8.94-19.11-19.07-23.07c-14.22-5.56-28.9-9.97-43.52-14.43c-17.89-5.45-36.41-9.2-53.77-15.95
		c-20.11-7.83-33.96-22.84-39.11-44.52c-6.45-27.15,10.59-59.76,36.5-70.4c34.64-14.23,69.34-14.6,103.62,0.69
		c21.56,9.62,34.06,26.98,38.58,50.09c0.74,3.78,1.21,7.6,1.86,11.81c-10.67,0.65-20.66,1.26-29.74,1.82
		c-4.38-9.27-7.86-18.4-12.82-26.64c-6.07-10.1-17-14.58-27.63-16.27c-17.39-2.76-35.35-4.01-52.57,1.37
		c-19.48,6.09-31.72,23.46-24.35,43.97c2.22,6.16,8.55,12.87,14.59,15.24c16.36,6.4,33.49,10.94,50.49,15.6
		c18.63,5.1,37.56,8.91,54.92,18.1c38.5,20.36,43.37,66.4,20.4,96.99c-15.09,20.1-36.3,29.6-60.73,32.05
		c-12.28,1.23-24.82,2.33-37.03,1.18c-13.61-1.28-26.87-4.6-39.66-10.82c-17.66-8.59-30.29-21.3-38.37-38.63
		C529.71,540.13,525.89,528.36,527.62,515.41z"/>
	<path fill="#900E0F" d="M371.35,544.74c-0.12,17.45-1.56,35.13,8.69,50.81c-10.67,0.29-21.33,0.58-32,0.87
		c-2.27-6.57-4.54-13.15-6.95-20.13c-0.57,0.34-1.94,0.96-3.08,1.87c-20.66,16.43-43.77,24.61-70.51,22.7
		c-14-1-26.57-4.26-37.13-13.93c-11.67-10.68-15.98-23.83-15.81-39.53c0.29-26.86,18.53-43.68,38.68-48.65
		c15.98-3.94,32.48-5.8,48.72-8.71c9.21-1.65,18.44-3.28,27.55-5.41c10.63-2.48,11.89-5.53,10.34-16.12
		c-3.45-23.54-18.93-29.41-37.76-29.87c-7.38-0.18-14.88-0.87-22.11,0.18c-14.47,2.1-23.27,11.29-27.84,24.95
		c-3.04,9.09-4,9.2-13.57,6.82c-4.71-1.17-9.74-1.06-14.62-1.57c-1.48-0.16-2.94-0.47-4.53-0.74c3.35-15.37,8.26-29.18,20.65-39.07
		c10.6-8.46,23.04-12.24,36.06-14.69c18.09-3.41,36.18-3.22,54.11,0.79c23.57,5.27,37.46,19.69,40.13,44.15
		c0.06,19.66,0.04,39.33,0.2,58.99C370.62,527.22,371.07,535.98,371.35,544.74z M339.12,506.73c-14.31,3.13-28.65,6.34-43.03,9.39
		c-9.45,2-19.11,3.18-28.39,5.78c-13.23,3.7-20.94,14.45-20.58,26.98c0.38,12.89,8.9,23.87,22.02,26.78
		c6.65,1.48,13.74,1.86,20.58,1.52c26.54-1.32,45.88-18.71,49.23-44.64C340.05,523.94,339.12,515.07,339.12,506.73z"/>
	<path fill="#191919" d="M788.94,525.18c1.4,33.66,33.27,58.08,65.26,49.41c13.33-3.61,23.41-12.06,29.33-24.95
		c1.63-3.55,3.55-6.97,5.55-10.89c9.98,1.39,20.55,2.85,31.24,4.34c-8.07,29.33-25.93,49.18-55.89,55.3
		c-32.14,6.57-62.88,3.95-86.8-22.36c-11.65-12.82-18.63-28.18-20.06-45.57c-1.05-12.7-2.72-25.62-1.49-38.18
		c2.86-29.01,14-54.5,40.45-69.49c16.43-9.31,34.83-11.8,54.17-9.57c38.9,4.48,61.74,32.46,68.44,66.26
		c1.91,9.61,2.04,19.56,2.99,29.36c-0.42,1.98-0.84,3.95-1.35,6.37c-44.44,0-88.72,0-133.6,0
		C787.85,518.92,788.39,522.05,788.94,525.18z M889.34,489.77c-2.39-34.98-23.25-54.91-54.44-52.37
		c-25.61,2.08-45.62,25.22-45.01,52.37C822.87,489.77,855.87,489.77,889.34,489.77z"/>
	<path fill="#191919" d="M1270.37,525.18c1.41,33.67,33.27,58.08,65.26,49.4c13.33-3.61,23.41-12.06,29.33-24.95
		c1.63-3.55,3.55-6.97,5.55-10.89c9.98,1.39,20.55,2.85,31.24,4.34c-8.07,29.34-25.93,49.18-55.89,55.3
		c-32.14,6.57-62.88,3.95-86.8-22.36c-11.65-12.82-18.63-28.18-20.06-45.57c-1.05-12.7-2.72-25.62-1.49-38.18
		c2.86-29.01,14-54.5,40.45-69.49c16.43-9.31,34.83-11.8,54.17-9.57c38.9,4.48,61.74,32.46,68.44,66.26
		c1.91,9.61,2.04,19.56,2.99,29.36c-0.42,1.98-0.84,3.95-1.35,6.37c-44.44,0-88.72,0-133.6,0
		C1269.27,518.91,1269.82,522.05,1270.37,525.18z M1370.79,489.74c-2.66-35.37-24.26-55.51-55.32-52.31
		c-24.84,2.56-45.07,25.4-44.03,52.31C1304.44,489.74,1337.43,489.74,1370.79,489.74z"/>
	<path fill="#191919" d="M1471.55,795.41c-11.74,0-23.48,0-35.58,0c0-126.77,0-253.17,0-379.99c11.58,0,23.23,0,35.63,0
		c0,5.24,0,10.63,0,17.29c2.26-1.6,3.86-2.16,4.51-3.27c10.09-17.32,29.37-20.67,48.01-13.66c13.49,5.08,13.44,5.2,8.64,18.82
		c-0.23,0.64-0.26,1.34-0.48,1.98c-4.6,12.96-4.46,12.24-17.65,9.63c-23.33-4.61-38.68,4.5-41.68,33.63
		c-0.4,3.63-1.14,7.26-1.14,10.89c-0.06,87.91-0.04,175.82-0.06,263.73C1471.73,768.12,1471.62,781.77,1471.55,795.41z"/>
	<path fill="#191919" d="M1541.36,543.29c10.24-1.48,19.26-2.97,28.33-3.92c1.39-0.15,4.16,1.96,4.39,3.34
		c3.47,20.76,20.78,33.42,42.77,33.43c12.71,0.01,24.96-0.79,34.9-10.14c13.56-12.76,12.75-32.07-8.37-38.51
		c-16.38-4.99-33.14-8.79-49.41-14.1c-9.9-3.23-20.21-6.89-28.51-12.89c-11.73-8.48-17.27-20.77-17.23-36.26
		c0.05-19.5,8.6-33.58,24.61-42.35c16.04-8.79,34.2-11.64,52.41-8.91c11.1,1.66,22.22,4.73,32.66,8.87
		c18.13,7.18,24.52,23.08,27.68,41.62c-10.13,1.5-19.89,2.95-30,4.46c-2.22-15.43-10.86-25.73-25.76-28.41
		c-13.26-2.38-27.1-2.66-40.03,2.55c-7.76,3.13-12.33,12.06-11.73,20.16c0.76,10.3,7.93,15.25,16.43,17.94
		c18.99,6.01,38.24,11.16,57.31,16.89c12.82,3.86,25.21,8.69,33.23,20.42c14.02,20.5,7.47,53.04-13.44,68.15
		c-12.46,9-26.31,14-41.52,14.98c-17.69,1.14-35.28,1.11-51.96-6.48c-11.01-5.02-19.73-12.54-25.08-23.32
		C1548.71,562.09,1545.39,552.91,1541.36,543.29z"/>
	<path fill="#900E0F" d="M37.24,348.39c65.23,0,130.47,0,196.74,0c0,9.84,0,19.22,0,28.61c-2.52,0.18-5.04,0.52-7.57,0.52
		c-22.65,0.04-45.3,0.01-67.95,0.04c-2.21,0-4.42,0.22-7.05,0.37c0,3.06,0,5.58,0,8.09c0,67.54,0.01,135.08-0.02,202.62
		c0,2.76-0.27,5.52-0.42,8.27c-10.63-0.01-21.27-0.03-31.9-0.04c-0.08-2.54-0.23-5.07-0.23-7.61
		c-0.01-67.96-0.01-135.92-0.01-203.88c0-2.46,0-4.92,0-8.02c-27.69,0-54.58,0-81.59,0C37.24,367.27,37.24,357.83,37.24,348.39z"/>
	<path fill="#191919" d="M1627.21,683.84c-1.49-18.64-8.92-28.69-24.08-32.58c-28.1-7.21-53.29,11.59-53.69,40.55
		c-0.44,31.69-0.34,63.39-0.47,95.09c-0.01,2.52,0,5.04,0,8.23c-9.45,0-18.57,0-28,0c0-55.19,0-111.05,0-167.3c8.2,0,16.2,0,25.04,0
		c0,6.63,0,13.36,0,21.96c14.89-19.45,34.03-25.89,55.48-24.91c25.34,1.16,44.7,11.13,51.08,33.81c2.45,8.71,2.65,18.05,3.87,27.1
		c0,36.41,0,72.81,0,109.22c-9.96,0-19.04,0-28.25,0c0-32.8,0.04-65.13-0.04-97.46C1628.14,692.98,1627.54,688.41,1627.21,683.84z"
		/>
	<path fill="#191919" d="M1055.38,420.52c1.61-1.38,3.15-3.84,4.83-3.94c7.37-0.44,14.81,0.17,22.18-0.32
		c4.46-0.3,6.1,1.79,7.36,5.36c10.72,30.33,21.61,60.59,32.2,90.96c5.07,14.54,9.59,29.28,14.42,43.91
		c0.18,0.54,0.99,0.87,1.36,1.17c10.07-28.45,20-56.9,30.23-85.24c6.27-17.36,12.9-34.6,19.68-51.77c0.73-1.84,3.5-3.97,5.42-4.07
		c8.76-0.43,17.55-0.19,27.24-0.19c-4.88,13.08-9.56,25.72-14.31,38.34c-16.87,44.79-33.85,89.54-50.54,134.4
		c-2.06,5.55-4.39,8.7-10.94,7.91c-5.47-0.67-11.11-0.45-16.62-0.02c-3.63,0.28-5.2-1.1-6.38-4.23
		c-16.53-43.89-33.09-87.77-49.73-131.61c-4.83-12.74-9.94-25.38-14.92-38.06C1056.36,422.24,1055.87,421.38,1055.38,420.52z"/>
	<path fill="#191919" d="M1833.17,677.4c-9.31,1.46-18.4,2.88-27.6,4.32c-3.7-10.09-6.47-20.44-16.4-26.24
		c-24.82-14.49-56.45-4.23-64.88,23.92c-6.85,22.87-6.61,46.02,1.37,68.67c6.24,17.72,24.83,28.82,45.68,26.35
		c18.94-2.24,29.22-13.94,34.88-32.44c0.89-2.89,1.4-5.9,2.09-8.89c9.24,1.46,18.24,2.88,27.51,4.35
		c-4.15,28.14-19,47.78-45.55,57.31c-8.14,2.92-17.48,3.12-26.3,3.34c-27.88,0.72-48.92-11.83-62.68-35.63
		c-4.46-7.71-7.06-17.06-8.24-25.96c-1.77-13.45-2.99-27.29-1.81-40.74c1.51-17.23,6.87-33.79,18.39-47.44
		c11.32-13.4,26.48-19.39,43.35-22.37c12.51-2.21,24.82-1.56,36.82,1.88C1814.34,634.86,1828.2,651.8,1833.17,677.4z"/>
	<path fill="#191919" d="M1055.38,420.52c0.49,0.86,0.98,1.72,1.47,2.58c-3.11,7.42-6.45,14.75-9.24,22.28
		c-1.58,4.27-3.55,4.88-7.7,3.35c-26.8-9.88-43.04,0.52-48.2,26.59c-0.92,4.67-1.07,9.5-1.58,14.25c-0.37,4.34-1.05,8.68-1.07,13.02
		c-0.1,29.13-0.04,58.27-0.06,87.4c0,2.21-0.18,4.43-0.28,6.5c-10.47,0-20.36,0-30.25,0c0.05-57.32,0.11-114.65,0.16-171.97
		c0-2.49,0-4.97,0-7.79c9.26,0,17.94,0,27.67,0c0,7.26,0,14.6,0,21.94c0.49,0.09,0.98,0.18,1.46,0.27c1.73-2.51,3.53-4.97,5.17-7.54
		c12.69-19.98,30.79-22.89,51.04-15.04C1047.75,417.83,1051.58,419.14,1055.38,420.52z"/>
	<path fill="#900E0F" d="M418.78,596.49c0.06-57.32,0.11-114.64,0.17-171.96c0-2.48,0-4.97,0-7.79c9.29,0,17.96,0,27.41,0
		c0,7.19,0,14.42,0,21.65c0.5,0.19,1,0.38,1.5,0.57c2.14-2.89,4.51-5.65,6.39-8.7c11.41-18.46,29.41-21.34,48.36-14.65
		c13.99,4.94,13.92,5.18,8.99,19.3c-1.27,3.65-2.78,7.22-3.9,10.91c-1.28,4.22-3.9,4.83-7.3,2.85c-8.17-4.78-17.42-4.26-25.68-2.75
		c-9.71,1.77-16.77,9.38-19.74,18.94c-2.47,7.94-3.09,16.46-4.53,24.72c-0.37,4.34-1.05,8.68-1.07,13.02
		c-0.1,28.89-0.05,57.79-0.05,86.68c0,2.44,0,4.88,0,7.21C438.55,596.49,428.67,596.49,418.78,596.49z"/>
	<path fill="#191919" d="M1868.55,795.22c0-9.83,0-19.67,0-30.3c10.84,0,21.31,0,31.77,0c0,10,0,20.01,0,30.3
		C1889.5,795.22,1879.03,795.22,1868.55,795.22z"/>
	<path fill="#191919" d="M1352.2,656.99c0,15.16,0,29.9,0,45.04c-40.94,0-81.72,0-123.09,0c0-7.88,0-15.85,0-24.37
		c-52.91,0-105.26,0-157.99,0c0-7.12,0-13.7,0-20.66C1164.57,656.99,1258.06,656.99,1352.2,656.99z"/>
	<path fill="#191919" d="M359.38,658.18c11.95,0,23.44,0,35.31,0c0,36.83,0,73.47,0,110.5c-11.62,0-23.27,0-35.31,0
		C359.38,732.06,359.38,695.42,359.38,658.18z M389.36,663.91c-8.58,0-16.55,0-24.44,0c0,2.78,0,5.19,0,7.6c8.35,0,16.32,0,24.44,0
		C389.36,668.88,389.36,666.62,389.36,663.91z"/>
	<path fill="#191919" d="M446.22,658.38c0,36.95,0,73.43,0,110.3c-11.82,0-23.48,0-35.51,0c0-36.62,0-73.26,0-110.3
		C422.33,658.38,433.98,658.38,446.22,658.38z M416.16,671.58c8.26,0,16.22,0,24.4,0c0-2.7,0-5.11,0-7.75c-8.25,0-16.22,0-24.4,0
		C416.16,666.54,416.16,668.95,416.16,671.58z"/>
	<path fill="#191919" d="M497.45,658.28c0,36.93,0,73.58,0,110.5c-11.93,0-23.59,0-35.51,0c0-36.93,0-73.58,0-110.5
		C473.88,658.28,485.53,658.28,497.45,658.28z M467.49,671.59c8.24,0,16.21,0,24.42,0c0-2.69,0-5.1,0-7.76c-8.24,0-16.21,0-24.42,0
		C467.49,666.53,467.49,668.93,467.49,671.59z"/>
	<path fill="#191919" d="M513.36,658.2c12.01,0,23.5,0,35.35,0c0,36.85,0,73.49,0,110.5c-11.68,0-23.33,0-35.35,0
		C513.36,732.02,513.36,695.38,513.36,658.2z M518.71,671.52c8.54,0,16.51,0,24.44,0c0-2.77,0-5.18,0-7.62c-8.34,0-16.31,0-24.44,0
		C518.71,666.52,518.71,668.78,518.71,671.52z"/>
	<path fill="#191919" d="M600,768.9c-11.9,0-23.39,0-35.27,0c0-36.81,0-73.45,0-110.5c11.56,0,23.22,0,35.27,0
		C600,694.97,600,731.61,600,768.9z M594.65,663.87c-8.43,0-16.4,0-24.44,0c0,2.74,0,5.15,0,7.67c8.3,0,16.27,0,24.44,0
		C594.65,668.97,594.65,666.7,594.65,663.87z"/>
	<path fill="#191919" d="M616,658.22c12.09,0,23.58,0,35.4,0c0,36.87,0,73.52,0,110.5c-11.76,0-23.41,0-35.4,0
		C616,731.97,616,695.33,616,658.22z M621.37,671.47c8.67,0,16.64,0,24.89,0c-0.14-2.83-0.26-5.24-0.37-7.52c-8.53,0-16.5,0-24.52,0
		C621.37,666.62,621.37,668.88,621.37,671.47z"/>
	<path fill="#191919" d="M702.66,768.9c-11.87,0-23.36,0-35.26,0c0-36.79,0-73.43,0-110.49c11.54,0,23.19,0,35.26,0
		C702.66,694.95,702.66,731.59,702.66,768.9z M697.38,663.94c-8.66,0-16.63,0-24.89,0c0.13,2.82,0.24,5.23,0.34,7.55
		c8.51,0,16.48,0,24.55,0C697.38,668.83,697.38,666.57,697.38,663.94z"/>
	<path fill="#191919" d="M753.9,768.81c-11.6,0-23.09,0-35.08,0c0-36.51,0-73.16,0-110.31c11.26,0,22.91,0,35.08,0
		C753.9,694.76,753.9,731.41,753.9,768.81z M724.07,671.54c8.48,0,16.45,0,24.44,0c0-2.75,0-5.16,0-7.65c-8.32,0-16.29,0-24.44,0
		C724.07,666.49,724.07,668.75,724.07,671.54z"/>
	<path fill="#191919" d="M805.57,657.01c0,36.91,0,73.39,0,110.27c-11.81,0-23.46,0-35.51,0c0-36.58,0-73.22,0-110.27
		C781.63,657.01,793.28,657.01,805.57,657.01z M775.4,670.15c8.48,0,16.45,0,24.44,0c0-2.75,0-5.16,0-7.65c-8.32,0-16.29,0-24.44,0
		C775.4,665.1,775.4,667.36,775.4,670.15z"/>
	<path fill="#191919" d="M856.66,767.51c-11.87,0-23.36,0-35.26,0c0-36.78,0-73.43,0-110.49c11.53,0,23.19,0,35.26,0
		C856.66,693.56,856.66,730.2,856.66,767.51z M826.73,670.06c8.71,0,16.68,0,24.88,0c-0.15-2.86-0.28-5.28-0.4-7.47
		c-8.59,0-16.56,0-24.48,0C826.73,665.28,826.73,667.55,826.73,670.06z"/>
	<path fill="#191919" d="M872.73,656.77c11.91,0,23.4,0,35.28,0c0,36.81,0,73.45,0,110.5c-11.57,0-23.23,0-35.28,0
		C872.73,730.7,872.73,694.06,872.73,656.77z M902.58,662.44c-8.21,0-16.18,0-24.42,0c0,2.66,0,5.07,0,7.76c8.21,0,16.18,0,24.42,0
		C902.58,667.54,902.58,665.13,902.58,662.44z"/>
	<path fill="#191919" d="M959.4,767.45c-12.09,0-23.58,0-35.4,0c0-36.87,0-73.52,0-110.5c11.76,0,23.41,0,35.4,0
		C959.4,693.71,959.4,730.35,959.4,767.45z M953.83,670.28c0-2.91,0-5.31,0-7.78c-8.33,0-16.3,0-24.26,0c0,2.76,0,5.17,0,7.78
		C937.71,670.28,945.5,670.28,953.83,670.28z"/>
	<path fill="#191919" d="M1010.61,767.52c-12.09,0-23.58,0-35.4,0c0-36.87,0-73.52,0-110.5c11.76,0,23.41,0,35.4,0
		C1010.61,693.77,1010.61,730.41,1010.61,767.52z M1005.04,670.35c0-2.91,0-5.31,0-7.78c-8.33,0-16.3,0-24.26,0
		c0,2.76,0,5.17,0,7.78C988.92,670.35,996.71,670.35,1005.04,670.35z"/>
	<path fill="#191919" d="M154.07,658.16c11.87,0,23.36,0,35.26,0c0,36.79,0,73.43,0,110.49c-11.54,0-23.19,0-35.26,0
		C154.07,732.11,154.07,695.47,154.07,658.16z M159.4,671.45c8.71,0,16.68,0,24.88,0c-0.15-2.87-0.28-5.28-0.4-7.47
		c-8.59,0-16.56,0-24.48,0C159.4,666.67,159.4,668.93,159.4,671.45z"/>
	<path fill="#191919" d="M240.66,768.9c-11.87,0-23.36,0-35.26,0c0-36.78,0-73.43,0-110.49c11.53,0,23.19,0,35.26,0
		C240.66,694.95,240.66,731.59,240.66,768.9z M235.31,664c-8.04,0-16.19,0-24.44,0c0,2.61,0,5.01,0,7.55c8.3,0,16.27,0,24.44,0
		C235.31,668.97,235.31,666.71,235.31,664z"/>
	<path fill="#191919" d="M292,768.9c-11.88,0-23.37,0-35.27,0c0-36.8,0-73.44,0-110.5c11.55,0,23.2,0,35.27,0
		C292,694.96,292,731.6,292,768.9z M286.68,663.9c-8.54,0-16.51,0-24.44,0c0,2.78,0,5.19,0,7.62c8.34,0,16.31,0,24.44,0
		C286.68,668.9,286.68,666.64,286.68,663.9z"/>
	<path fill="#191919" d="M343.56,658.42c0,36.83,0,73.31,0,110.22c-11.74,0-23.39,0-35.47,0c0-36.5,0-73.14,0-110.22
		C319.58,658.42,331.23,658.42,343.56,658.42z M313.11,663.76c0.16,3.07,0.29,5.48,0.4,7.7c8.57,0,16.55,0,24.75,0
		c-0.15-2.86-0.28-5.27-0.41-7.7C329.49,663.76,321.71,663.76,313.11,663.76z"/>
</g>
</svg>
